<svg width="50" height="55" viewBox="0 0 50 55" fill="none" xmlns="http://www.w3.org/2000/svg">
<path d="M44.149 0.706055H41.8585C40.8517 0.706055 40.8517 2.28831 41.8585 2.28831H44.149C46.5144 2.28831 48.4389 4.23196 48.4389 6.62096V24.93C48.4389 27.3191 46.5145 29.2628 44.149 29.2628H41.5512C41.3798 29.2628 41.2132 29.3199 41.077 29.4255L36.3102 33.1215V30.0539C36.3102 29.617 35.9608 29.2628 35.5297 29.2628H26.0306C25.2527 29.2628 24.5051 29.0546 23.8457 28.659V19.7781C23.8457 18.1146 23.0098 16.6449 21.7406 15.7754V6.62096C21.7406 4.23196 23.665 2.28831 26.0306 2.28831H36.9674C37.9742 2.28831 37.9742 0.706055 36.9674 0.706055H26.0306C22.8043 0.706055 20.1796 3.3595 20.1796 6.62096V15.08C19.8222 14.9935 19.4499 14.9464 19.0667 14.9464H4.7789C2.14386 14.9464 0 17.1139 0 19.7781V21.4864C0 22.5068 1.56098 22.5068 1.56098 21.4864V19.7781C1.56098 17.9863 3.00448 16.5286 4.7789 16.5286H19.0668C20.8412 16.5286 22.2848 17.9863 22.2848 19.7781V28.9739C22.2755 29.0438 22.2759 29.1141 22.2848 29.1834V34.2163C22.2848 34.3157 22.2789 34.4148 22.27 34.5133H20.6605C18.8869 34.5133 17.4083 35.8109 17.1017 37.5162C17.0308 37.5433 16.9626 37.5812 16.8994 37.6306L13.4085 40.3627V38.2568C13.4085 37.8199 13.0592 37.4657 12.6281 37.4657H4.7789C3.00448 37.4657 1.56098 36.008 1.56098 34.2163V26.2332C1.56098 25.2127 0 25.2127 0 26.2332V34.2164C0 36.8806 2.14386 39.0481 4.7789 39.0481H11.8477V41.9731C11.8477 42.6077 12.6079 42.9884 13.1052 42.5994L17.0425 39.5179V48.4181C17.0425 50.4355 18.6656 52.0766 20.6606 52.0766H25.4502V53.9227C25.4502 54.557 26.2104 54.9382 26.7076 54.5489L29.8666 52.0766H30.7999C32.7948 52.0766 34.4179 50.4354 34.4179 48.4181V47.0135C34.4179 45.993 32.857 45.993 32.857 47.0135V48.4181C32.857 49.563 31.9342 50.4943 30.7999 50.4943H29.6003C29.4277 50.4943 29.2599 50.5524 29.1234 50.6592L27.0111 52.3122V51.2854C27.0111 50.8484 26.6617 50.4942 26.2306 50.4942H20.6605C19.5263 50.4942 18.6034 49.5628 18.6034 48.418V38.1719C18.6034 37.027 19.5261 36.0957 20.6605 36.0957H30.7999C31.9341 36.0957 32.857 37.0271 32.857 38.1719V42.0557C32.857 43.0762 34.4179 43.0762 34.4179 42.0557V38.172C34.4179 36.1546 32.7948 34.5135 30.7999 34.5135H23.8369C23.8428 34.4147 23.8458 30.4189 23.8458 30.4189C24.534 30.6993 25.2718 30.8451 26.0307 30.8451H34.7493V34.7227C34.7493 35.3557 35.5063 35.7368 36.004 35.3511L41.8157 30.8451H44.1491C47.3753 30.8451 50 28.1917 50 24.9301V6.62096C49.9999 3.3595 47.3752 0.706055 44.149 0.706055V0.706055Z" fill="#F9F6F3"/>
<path d="M36.9544 6.79737C35.9613 6.54592 34.9493 7.32417 34.9493 8.34197C34.9493 9.454 34.5407 10.5257 33.7993 11.3591L31.6443 13.7777C31.5048 13.5653 31.2637 13.4248 30.9891 13.4248H26.7822C26.3501 13.4248 26 13.7721 26 14.2005V23.5889C26 24.0173 26.3501 24.3646 26.7822 24.3646H30.9891C31.3052 24.3646 31.5767 24.1783 31.7001 23.9108C32.5518 24.427 33.5388 24.7061 34.543 24.7061H41.9778C43.1139 24.7061 44.0511 23.7283 43.9978 22.6044C43.9741 22.1066 44 15.4234 44 15.2749C44 14.169 43.0928 13.2691 41.9801 13.2691L38.1138 13.2576L38.2739 12.8816C39.0055 11.1633 38.885 9.17069 37.9521 7.55121C37.7343 7.17284 37.3799 6.90525 36.9544 6.79737C36.5287 6.68959 37.3799 6.90525 36.9544 6.79737C35.9614 6.54592 37.3799 6.90525 36.9544 6.79737V6.79737ZM30.2069 22.8131H27.5643V14.9763H30.2069V22.8131ZM41.9778 14.8205C42.2304 14.8205 42.4358 15.0243 42.4358 15.2748C42.4358 15.4224 42.4342 15.823 42.4322 16.3662C42.4206 19.365 42.4129 22.2051 42.4352 22.6772C42.4433 22.8475 42.3598 22.9611 42.3093 23.0136C42.2219 23.1045 42.1042 23.1544 41.9778 23.1544H34.543C33.6567 23.1544 32.7894 22.8498 32.1005 22.2967L31.7712 22.0324V15.9782L34.9719 12.386C35.9661 11.2685 36.5136 9.83227 36.5136 8.34187C36.5136 8.29801 36.5739 8.28663 36.594 8.32077C37.2866 9.52299 37.3759 11.0022 36.8329 12.2779L36.2156 13.7279C36.1137 13.9672 36.1394 14.241 36.2836 14.4576C36.4281 14.6742 36.6721 14.8047 36.9337 14.8055L41.9778 14.8205Z" fill="#F9F6F3"/>
<path d="M6.77787 28.2338C6.34818 28.2338 6 28.6111 6 29.0764C6 29.5418 6.34818 29.9191 6.77787 29.9191H9.07084L8.64249 32.7256C8.57238 33.1847 8.85926 33.6185 9.28304 33.6945C9.32609 33.7022 9.36871 33.7059 9.41082 33.7059C9.78462 33.7059 10.1143 33.4133 10.1774 33.0006L10.6476 29.9192H12.5242L12.0958 32.7258C12.0257 33.1848 12.3126 33.6186 12.7364 33.6946C12.7794 33.7023 12.8221 33.7061 12.8642 33.7061C13.238 33.7061 13.5677 33.4134 13.6307 33.0007L14.101 29.9193H17.2221C17.6518 29.9193 18 29.542 18 29.0767C18 28.6113 17.6518 28.234 17.2221 28.234H14.3582L14.6719 26.1783H17.2221C17.6518 26.1783 18 25.8011 18 25.3357C18 24.8703 17.6518 24.493 17.2221 24.493H14.9292L15.3575 21.6865C15.4276 21.2274 15.1407 20.7936 14.717 20.7176C14.2927 20.6415 13.8927 20.9525 13.8226 21.4116L13.3524 24.4929H11.4758L11.9042 21.6864C11.9743 21.2273 11.6874 20.7935 11.2636 20.7175C10.8388 20.6414 10.4395 20.9524 10.3693 21.4114L9.89901 24.4928H6.77787C6.34818 24.4928 6 24.8701 6 25.3355C6 25.8008 6.34818 26.1781 6.77787 26.1781H9.6418L9.32806 28.2338H6.77787ZM11.2187 26.1781H13.0952L12.7815 28.2338H10.905L11.2187 26.1781Z" fill="#F9F6F3"/>
<path d="M25.4906 40.3118C24.8582 39.7856 24.0168 39.578 23.1729 39.7854C22.0913 40.0508 21 41.0727 21 42.7571C21 43.8054 21.3785 44.7154 22.1572 45.5391C22.7933 46.212 23.7112 46.8518 25.1332 47.6138C25.248 47.6753 25.374 47.7061 25.5001 47.7061C25.6261 47.7061 25.7521 47.6753 25.8669 47.6138C28.3478 46.2845 30 44.9499 30 42.7571C30 41.0635 28.8699 40.0521 27.7499 39.801C26.9084 39.6123 26.0927 39.8126 25.4906 40.3118V40.3118ZM28.4335 42.7571C28.4335 43.9398 27.6574 44.8145 25.4999 46.0148C23.3425 44.8143 22.5663 43.9397 22.5663 42.7571C22.5663 41.877 23.0704 41.4397 23.5423 41.3238C23.6293 41.3025 23.7224 41.2904 23.8182 41.2904C24.1731 41.2904 24.5634 41.4561 24.804 41.9276C24.9411 42.1959 25.2182 42.3622 25.5155 42.356C25.8141 42.35 26.0834 42.1729 26.2096 41.8993C26.4631 41.3503 26.996 41.2537 27.4104 41.3467C27.9051 41.4574 28.4335 41.8862 28.4335 42.7571V42.7571Z" fill="#F9F6F3"/>
</svg>
